<svg class="svg-icon" style="width: 1em; height: 1em;vertical-align: middle;fill: currentColor;overflow: hidden;" viewBox="0 0 1024 1024" version="1.1" xmlns="http://www.w3.org/2000/svg"><path d="M675.84 218.624H409.6c-8.192 0-20.992 12.288-20.992 41.472v377.344h293.376c16.896 0 41.984 12.8 41.984 20.992V260.096a51.2 51.2 0 0 0-48.128-41.472z" fill="#27A3FF" /><path d="M921.6 0H102.4a102.4 102.4 0 0 0-102.4 102.4v819.2a102.4 102.4 0 0 0 102.4 102.4h819.2a102.4 102.4 0 0 0 102.4-102.4V102.4a102.4 102.4 0 0 0-102.4-102.4z m-157.696 775.68a89.6 89.6 0 0 1-75.776 71.68H336.384a80.384 80.384 0 0 1-75.776-83.968V289.792a22.528 22.528 0 0 1 20.992-20.992 22.016 22.016 0 0 1 20.992 20.992v473.6a38.4 38.4 0 0 0 33.792 41.984h339.456a46.08 46.08 0 0 0 46.08-41.984v-41.984a45.056 45.056 0 0 0-41.984-41.984H352.768c-8.192 0-8.192-4.096-8.192-12.288V260.096c0-41.472 20.992-83.456 67.072-83.456h264.192a90.624 90.624 0 0 1 88.064 83.456z m-423.424-33.28c0-12.8 4.096-20.992 12.288-20.992h318.976a18.944 18.944 0 0 1 16.384 20.992 19.456 19.456 0 0 1-16.384 20.992H358.4a19.456 19.456 0 0 1-17.92-20.992z" fill="#27A3FF" /></svg>